<?xml version="1.0" encoding="UTF-8"?>
<svg id="Layer_1" data-name="Layer 1" xmlns="http://www.w3.org/2000/svg" viewBox="0 0 250 150">
  <defs>
    <style>
      .cls-1 {
        fill: #1d82e7;
      }

      .cls-2 {
        fill: #e35b37;
      }
    </style>
  </defs>
  <path class="cls-1" d="m23.44.33l55.75,101.32V26.46c0-14.61,10.67-26.46,23.82-26.46h0c.29,0,.53.26.53.59v123.54c0,14.16-10.25,25.67-22.96,25.86-.2,0-.39-.12-.49-.32L24.35,50.11v99.3c0,.33-.24.59-.53.59h0c-13.16,0-23.82-11.85-23.82-26.46V25.87C0,11.7,10.25.2,22.96,0c.2,0,.39.12.49.32Z"/>
  <path class="cls-1" d="m218.69,10.39l-32.97,63.46,34.92,66.29c2.4,4.56,6.8,7.36,11.55,7.36h17.29c.4,0,.64-.48.44-.86l-39.11-73.13L247.96,3.81c.2-.38-.04-.86-.44-.86h-17.24c-4.78,0-9.2,2.83-11.59,7.43Z"/>
  <path class="cls-2" d="m180.8,54.45l-23.21-44.14c-2.4-4.56-6.8-7.37-11.56-7.37h-17.28c-.4,0-.65.48-.44.86l32.52,60.05,14.92.2c4.47.06,7.3-5.32,5.04-9.61Z"/>
  <path class="cls-2" d="m128.3,146.62l31.76-60.39h15.69c4.48,0,7.24,5.43,4.93,9.69l-23.9,44.13c-2.39,4.41-6.67,7.14-11.3,7.2l-16.73.23c-.4,0-.65-.47-.45-.86Z"/>
</svg>