<svg id="Layer_1" data-name="Layer 1" xmlns="http://www.w3.org/2000/svg" viewBox="0 0 400 250"><defs><style>.cls-1{fill:#1d82e7;}.cls-2{fill:#1972cb;}.cls-3{fill:#1462af;}.cls-4{fill:#105293;}.cls-5{fill:#0c4277;}.cls-6{fill:#e35b37;}</style></defs><path class="cls-1" d="M73.82,94.46v44.21L38,94.46v61H49V126.76l25.32,28.73H84.82v-51.2Z"/><path d="M125.43,94.46A5.73,5.73,0,0,0,122,95.59a11.37,11.37,0,0,1,5-1.13Z"/><path class="cls-2" d="M156.39,144.46v11.08H126.82a4.92,4.92,0,0,1-.67,0A11.49,11.49,0,0,1,115.47,144V119.67h36.3v11.08H127v8.82a4.89,4.89,0,0,0,4.89,4.89Z"/><path class="cls-2" d="M156.39,94.46v11.08h-40.9a11.48,11.48,0,0,1,6.51-10h0a11.37,11.37,0,0,1,5-1.13Z"/><polygon class="cls-3" points="226.18 155.54 214.05 155.54 201.71 134.69 189.51 155.54 177.38 155.54 194.39 124.39 177.88 94.45 190.02 94.45 201.64 114.09 213.12 94.45 225.26 94.45 207.73 124.42 226.18 155.54"/><path class="cls-4" d="M279.86,94.46v39.28c0,3.5-.95,6.22-2.83,8.15s-4.56,2.9-8,2.9-6.06-1-7.94-2.9-2.82-4.65-2.82-8.15V94.46h-11.5v39a26.69,26.69,0,0,0,2.6,12.29,17.72,17.72,0,0,0,7.6,7.77,28.62,28.62,0,0,0,24.14,0,17.76,17.76,0,0,0,7.64-7.77,26.56,26.56,0,0,0,2.63-12.29v-39Z"/><path class="cls-5" d="M359.36,127.75a15,15,0,0,0-6.49-5.21,51.08,51.08,0,0,0-9.68-2.75l-.48-.1a2.68,2.68,0,0,0-.49-.11,3.43,3.43,0,0,0-.34-.06c-.11,0-.22,0-.33-.06A59.25,59.25,0,0,1,335.3,118a9.11,9.11,0,0,1-3.75-2.25,5.69,5.69,0,0,1-1.51-4.18v0a5.45,5.45,0,0,1,2.9-4.89c1.93-1.16,4.67-1.75,8.19-1.75a22.57,22.57,0,0,1,7.38,1.35,30.75,30.75,0,0,1,7.36,3.78l4.88-9.75a38.44,38.44,0,0,0-6.22-3.44,37.2,37.2,0,0,0-6.7-2.19,31.27,31.27,0,0,0-6.7-.75A30.56,30.56,0,0,0,328.94,96a16.8,16.8,0,0,0-7.68,6.42,18.5,18.5,0,0,0-2.64,10.11v0q0,6.67,2.81,10.31a14.9,14.9,0,0,0,6.85,5.08,56.62,56.62,0,0,0,10.16,2.42l.93.12a.64.64,0,0,0,.23.05.7.7,0,0,1,.23,0,44.56,44.56,0,0,1,5.72,1.22,8.29,8.29,0,0,1,3.6,2.1,5.25,5.25,0,0,1,1.39,3.86v.05a6,6,0,0,1-3.11,5.39q-3.1,1.92-8.74,1.92a29,29,0,0,1-9.49-1.59,25.47,25.47,0,0,1-8.15-4.47l-5.33,9.5a29.74,29.74,0,0,0,6.57,4.09,35.86,35.86,0,0,0,7.86,2.58,41.12,41.12,0,0,0,8.54.89A32.52,32.52,0,0,0,351.27,154a17,17,0,0,0,8-6.34,17.79,17.79,0,0,0,2.73-10v-.09C362,133.42,361.09,130.15,359.36,127.75Z"/><path d="M115.49,105.54a3.1,3.1,0,0,0,0,.43v-.43Z"/><path class="cls-6" d="M115.47,137.6s17.36,5.08,18.55,17.94H126.2a11.76,11.76,0,0,1-7.36-3.22,11.08,11.08,0,0,1-3.36-8.37Z"/></svg>